<svg xmlns="http://www.w3.org/2000/svg" xmlns:xlink="http://www.w3.org/1999/xlink" width="1080" zoomAndPan="magnify" viewBox="0 0 810 809.999993" height="1080" preserveAspectRatio="xMidYMid meet" version="1.0"><path fill="#fffaf9" d="M 261 81 C 161.605469 81 81 161.605469 81 261 L 81 549 C 81 648.394531 161.605469 729 261 729 L 549 729 C 648.394531 729 729 648.394531 729 549 L 729 261 C 729 161.605469 648.394531 81 549 81 Z M 621 153 C 640.871094 153 657 169.128906 657 189 C 657 208.871094 640.871094 225 621 225 C 601.128906 225 585 208.871094 585 189 C 585 169.128906 601.128906 153 621 153 Z M 405 225 C 504.394531 225 585 305.605469 585 405 C 585 504.394531 504.394531 585 405 585 C 305.605469 585 225 504.394531 225 405 C 225 305.605469 305.605469 225 405 225 Z M 405 297 C 403.234375 297 401.464844 297.042969 399.699219 297.128906 C 397.933594 297.21875 396.171875 297.347656 394.414062 297.519531 C 392.65625 297.691406 390.902344 297.910156 389.152344 298.167969 C 387.40625 298.429688 385.664062 298.730469 383.929688 299.074219 C 382.195312 299.421875 380.472656 299.808594 378.757812 300.238281 C 377.042969 300.667969 375.339844 301.136719 373.648438 301.652344 C 371.957031 302.164062 370.28125 302.71875 368.617188 303.3125 C 366.953125 303.910156 365.304688 304.542969 363.671875 305.222656 C 362.039062 305.898438 360.421875 306.613281 358.824219 307.371094 C 357.226562 308.125 355.648438 308.917969 354.089844 309.753906 C 352.53125 310.585938 350.992188 311.457031 349.476562 312.367188 C 347.960938 313.273438 346.46875 314.21875 345 315.203125 C 343.527344 316.183594 342.085938 317.199219 340.664062 318.253906 C 339.246094 319.304688 337.851562 320.394531 336.484375 321.515625 C 335.121094 322.636719 333.78125 323.789062 332.472656 324.976562 C 331.160156 326.164062 329.882812 327.382812 328.632812 328.632812 C 327.382812 329.882812 326.164062 331.160156 324.976562 332.472656 C 323.789062 333.78125 322.636719 335.121094 321.515625 336.484375 C 320.394531 337.851562 319.304688 339.246094 318.253906 340.664062 C 317.199219 342.085938 316.183594 343.527344 315.203125 345 C 314.21875 346.46875 313.273438 347.960938 312.367188 349.476562 C 311.457031 350.992188 310.585938 352.53125 309.753906 354.089844 C 308.917969 355.648438 308.125 357.226562 307.367188 358.824219 C 306.613281 360.421875 305.898438 362.039062 305.222656 363.671875 C 304.542969 365.304688 303.910156 366.953125 303.3125 368.617188 C 302.71875 370.28125 302.164062 371.957031 301.652344 373.648438 C 301.136719 375.339844 300.667969 377.042969 300.238281 378.757812 C 299.808594 380.472656 299.421875 382.195312 299.074219 383.929688 C 298.730469 385.664062 298.429688 387.40625 298.167969 389.152344 C 297.910156 390.902344 297.691406 392.65625 297.519531 394.414062 C 297.347656 396.171875 297.21875 397.933594 297.128906 399.699219 C 297.042969 401.464844 297 403.234375 297 405 C 297 406.765625 297.042969 408.535156 297.128906 410.300781 C 297.21875 412.066406 297.347656 413.828125 297.519531 415.585938 C 297.691406 417.34375 297.910156 419.097656 298.167969 420.847656 C 298.429688 422.59375 298.730469 424.335938 299.074219 426.070312 C 299.421875 427.804688 299.808594 429.527344 300.238281 431.242188 C 300.667969 432.957031 301.136719 434.660156 301.652344 436.351562 C 302.164062 438.042969 302.71875 439.71875 303.3125 441.382812 C 303.910156 443.046875 304.542969 444.695312 305.222656 446.328125 C 305.898438 447.960938 306.613281 449.578125 307.367188 451.175781 C 308.125 452.773438 308.917969 454.351562 309.753906 455.910156 C 310.585938 457.46875 311.457031 459.007812 312.363281 460.523438 C 313.273438 462.039062 314.21875 463.53125 315.203125 465 C 316.183594 466.472656 317.199219 467.914062 318.253906 469.335938 C 319.304688 470.753906 320.394531 472.148438 321.515625 473.515625 C 322.636719 474.878906 323.789062 476.21875 324.976562 477.527344 C 326.164062 478.839844 327.382812 480.117188 328.632812 481.367188 C 329.882812 482.617188 331.160156 483.835938 332.472656 485.023438 C 333.78125 486.210938 335.121094 487.363281 336.484375 488.484375 C 337.851562 489.605469 339.246094 490.695312 340.664062 491.746094 C 342.085938 492.800781 343.527344 493.816406 345 494.796875 C 346.46875 495.78125 347.960938 496.726562 349.476562 497.632812 C 350.992188 498.542969 352.53125 499.414062 354.089844 500.246094 C 355.648438 501.082031 357.226562 501.875 358.824219 502.628906 C 360.421875 503.386719 362.039062 504.101562 363.671875 504.777344 C 365.304688 505.457031 366.953125 506.089844 368.617188 506.6875 C 370.28125 507.28125 371.957031 507.835938 373.648438 508.347656 C 375.339844 508.863281 377.042969 509.332031 378.757812 509.761719 C 380.472656 510.191406 382.195312 510.578125 383.929688 510.925781 C 385.664062 511.269531 387.40625 511.570312 389.152344 511.832031 C 390.902344 512.089844 392.65625 512.308594 394.414062 512.480469 C 396.171875 512.652344 397.933594 512.78125 399.699219 512.871094 C 401.464844 512.957031 403.234375 513 405 513 C 406.765625 513 408.535156 512.957031 410.300781 512.871094 C 412.066406 512.78125 413.828125 512.652344 415.585938 512.480469 C 417.34375 512.308594 419.097656 512.089844 420.847656 511.832031 C 422.59375 511.570312 424.335938 511.269531 426.070312 510.925781 C 427.804688 510.578125 429.527344 510.191406 431.242188 509.761719 C 432.957031 509.332031 434.660156 508.863281 436.351562 508.347656 C 438.042969 507.835938 439.71875 507.28125 441.382812 506.6875 C 443.046875 506.089844 444.695312 505.457031 446.328125 504.777344 C 447.960938 504.101562 449.578125 503.386719 451.175781 502.628906 C 452.773438 501.875 454.351562 501.082031 455.910156 500.246094 C 457.46875 499.414062 459.007812 498.542969 460.523438 497.632812 C 462.039062 496.726562 463.53125 495.78125 465 494.796875 C 466.472656 493.816406 467.914062 492.800781 469.335938 491.746094 C 470.753906 490.695312 472.148438 489.605469 473.515625 488.484375 C 474.878906 487.363281 476.21875 486.210938 477.527344 485.023438 C 478.839844 483.835938 480.117188 482.617188 481.367188 481.367188 C 482.617188 480.117188 483.835938 478.839844 485.023438 477.527344 C 486.210938 476.21875 487.363281 474.878906 488.484375 473.515625 C 489.605469 472.148438 490.695312 470.753906 491.746094 469.335938 C 492.800781 467.914062 493.816406 466.472656 494.796875 465 C 495.78125 463.53125 496.726562 462.039062 497.632812 460.523438 C 498.542969 459.007812 499.414062 457.46875 500.246094 455.910156 C 501.082031 454.351562 501.875 452.773438 502.628906 451.175781 C 503.386719 449.578125 504.101562 447.960938 504.777344 446.328125 C 505.457031 444.695312 506.089844 443.046875 506.6875 441.382812 C 507.28125 439.71875 507.835938 438.042969 508.347656 436.351562 C 508.863281 434.660156 509.332031 432.957031 509.761719 431.242188 C 510.191406 429.527344 510.578125 427.804688 510.925781 426.070312 C 511.269531 424.335938 511.570312 422.59375 511.832031 420.847656 C 512.089844 419.097656 512.304688 417.34375 512.480469 415.585938 C 512.652344 413.828125 512.78125 412.066406 512.871094 410.300781 C 512.957031 408.535156 513 406.765625 513 405 C 513 403.234375 512.957031 401.464844 512.871094 399.699219 C 512.78125 397.933594 512.652344 396.171875 512.480469 394.414062 C 512.304688 392.65625 512.089844 390.902344 511.832031 389.152344 C 511.570312 387.40625 511.269531 385.664062 510.925781 383.929688 C 510.578125 382.195312 510.191406 380.472656 509.761719 378.757812 C 509.332031 377.042969 508.863281 375.339844 508.347656 373.648438 C 507.835938 371.957031 507.28125 370.28125 506.6875 368.617188 C 506.089844 366.953125 505.457031 365.304688 504.777344 363.671875 C 504.101562 362.039062 503.386719 360.421875 502.628906 358.824219 C 501.875 357.226562 501.082031 355.648438 500.246094 354.089844 C 499.414062 352.53125 498.542969 350.992188 497.632812 349.476562 C 496.726562 347.960938 495.78125 346.46875 494.796875 345 C 493.816406 343.527344 492.800781 342.085938 491.746094 340.664062 C 490.695312 339.246094 489.605469 337.851562 488.484375 336.484375 C 487.363281 335.121094 486.210938 333.78125 485.023438 332.472656 C 483.835938 331.160156 482.617188 329.882812 481.367188 328.632812 C 480.117188 327.382812 478.839844 326.164062 477.527344 324.976562 C 476.21875 323.789062 474.878906 322.636719 473.515625 321.515625 C 472.148438 320.394531 470.753906 319.304688 469.335938 318.253906 C 467.914062 317.199219 466.472656 316.183594 465 315.203125 C 463.53125 314.21875 462.039062 313.273438 460.523438 312.367188 C 459.007812 311.457031 457.46875 310.585938 455.910156 309.753906 C 454.351562 308.917969 452.773438 308.125 451.175781 307.367188 C 449.578125 306.613281 447.960938 305.898438 446.328125 305.222656 C 444.695312 304.542969 443.046875 303.910156 441.382812 303.3125 C 439.71875 302.71875 438.042969 302.164062 436.351562 301.652344 C 434.660156 301.136719 432.957031 300.667969 431.242188 300.238281 C 429.527344 299.808594 427.804688 299.421875 426.070312 299.074219 C 424.335938 298.730469 422.59375 298.429688 420.847656 298.167969 C 419.097656 297.910156 417.34375 297.691406 415.585938 297.519531 C 413.828125 297.347656 412.066406 297.21875 410.300781 297.128906 C 408.535156 297.042969 406.765625 297 405 297 Z M 405 297 " fill-opacity="1" fill-rule="nonzero"/></svg>