<svg xmlns="http://www.w3.org/2000/svg" xmlns:xlink="http://www.w3.org/1999/xlink" width="1080" zoomAndPan="magnify" viewBox="0 0 810 809.999993" height="1080" preserveAspectRatio="xMidYMid meet" version="1.0"><defs><clipPath id="fff63a7bfd"><path d="M 163.09375 110.417969 L 688.09375 110.417969 L 688.09375 696.167969 L 163.09375 696.167969 Z M 163.09375 110.417969 " clip-rule="nonzero"/></clipPath><clipPath id="fdc4e6e0fa"><path d="M 81 79.117188 L 729 79.117188 L 729 727.117188 L 81 727.117188 Z M 81 79.117188 " clip-rule="nonzero"/></clipPath></defs><rect x="-81" width="972" fill="#ffffff" y="-80.999999" height="971.999992" fill-opacity="1"/><rect x="-81" width="972" fill="#ffffff" y="-80.999999" height="971.999992" fill-opacity="1"/><rect x="-81" width="972" fill="#c5cfea" y="-80.999999" height="971.999992" fill-opacity="1"/><g clip-path="url(#fff63a7bfd)"><path fill="#fffaf9" d="M 163.097656 110.417969 L 688.09375 110.417969 L 688.09375 696.167969 L 163.097656 696.167969 L 163.097656 110.417969 " fill-opacity="1" fill-rule="nonzero"/></g><g clip-path="url(#fdc4e6e0fa)"><path fill="#c5cfea" d="M 670.089844 79.117188 L 139.910156 79.117188 C 107.363281 79.117188 81 105.480469 81 138.027344 L 81 668.210938 C 81 700.757812 107.363281 727.117188 139.910156 727.117188 L 670.089844 727.117188 C 702.636719 727.117188 729 700.757812 729 668.210938 L 729 138.027344 C 729 105.480469 702.609375 79.117188 670.089844 79.117188 Z M 631.476562 358.171875 C 627.648438 358.523438 623.789062 358.761719 619.898438 358.761719 C 575.867188 358.761719 537.164062 336.140625 514.628906 301.882812 C 514.628906 391.691406 514.628906 493.898438 514.628906 495.605469 C 514.628906 574.691406 450.507812 638.785156 371.453125 638.785156 C 292.394531 638.753906 228.273438 574.632812 228.273438 495.578125 C 228.273438 416.492188 292.394531 352.398438 371.453125 352.398438 C 374.457031 352.398438 377.371094 352.664062 380.289062 352.839844 L 380.289062 423.414062 C 377.34375 423.058594 374.484375 422.527344 371.453125 422.527344 C 331.097656 422.527344 298.375 455.253906 298.375 495.605469 C 298.375 535.957031 331.070312 568.683594 371.453125 568.683594 C 411.832031 568.683594 447.472656 536.871094 447.472656 496.519531 C 447.472656 494.898438 448.179688 167.511719 448.179688 167.511719 L 515.601562 167.511719 C 521.933594 227.804688 570.621094 275.402344 631.476562 279.761719 Z M 631.476562 358.171875 " fill-opacity="1" fill-rule="nonzero"/></g></svg>