<svg xmlns="http://www.w3.org/2000/svg" xmlns:xlink="http://www.w3.org/1999/xlink" width="1080" zoomAndPan="magnify" viewBox="0 0 810 809.999993" height="1080" preserveAspectRatio="xMidYMid meet" version="1.0"><path fill="#f1eff0" d="M 405 81 C 226.070312 81 81 226.070312 81 405 C 81 465.78125 98.074219 522.453125 127.195312 571.0625 L 83.898438 729 L 245.214844 686.652344 C 292.390625 713.476562 346.855469 729 405 729 C 583.929688 729 729 583.929688 729 405 C 729 226.070312 583.929688 81 405 81 Z M 294.097656 253.863281 C 299.363281 253.863281 304.773438 253.832031 309.445312 254.074219 C 315.222656 254.210938 321.511719 254.632812 327.53125 267.945312 C 334.6875 283.765625 350.269531 323.457031 352.265625 327.480469 C 354.261719 331.503906 355.679688 336.242188 352.898438 341.507812 C 350.253906 346.90625 348.875 350.175781 344.988281 354.957031 C 340.964844 359.597656 336.558594 365.367188 332.910156 368.878906 C 328.890625 372.898438 324.734375 377.3125 329.378906 385.332031 C 334.023438 393.347656 350.152344 419.636719 373.992188 440.859375 C 404.636719 468.238281 430.492188 476.652344 438.539062 480.671875 C 446.585938 484.695312 451.246094 484.070312 455.886719 478.671875 C 460.667969 473.40625 475.960938 455.339844 481.359375 447.292969 C 486.625 439.246094 492 440.640625 499.289062 443.285156 C 506.6875 445.929688 546.140625 465.367188 554.183594 469.390625 C 562.230469 473.410156 567.507812 475.402344 569.53125 478.671875 C 571.609375 482.046875 571.613281 498.113281 564.941406 516.847656 C 558.273438 535.5625 525.527344 553.65625 510.835938 554.921875 C 496.015625 556.300781 482.179688 561.585938 414.492188 534.9375 C 332.84375 502.78125 281.351562 419.152344 277.328125 413.753906 C 273.308594 408.488281 244.632812 370.277344 244.632812 330.855469 C 244.632812 291.300781 265.375 271.929688 272.636719 263.882812 C 280.035156 255.835938 288.699219 253.863281 294.097656 253.863281 Z M 294.097656 253.863281 " fill-opacity="1" fill-rule="nonzero"/></svg>